<svg xmlns:xlink="http://www.w3.org/1999/xlink" xmlns="http://www.w3.org/2000/svg" width="24" height="24" fill="none" viewBox="0 0 24 24"><path fill="#616161" d="M14.68 22.47l-1.194-.685 2.744-4.802h4.116a1.372 1.372 0 001.372-1.372V7.379a1.372 1.372 0 00-1.372-1.372H6.626a1.372 1.372 0 00-1.372 1.372v8.232a1.372 1.372 0 001.372 1.372H12.8v1.372H6.626a2.744 2.744 0 01-2.744-2.744V7.379a2.744 2.744 0 012.744-2.744h13.72a2.744 2.744 0 012.744 2.744v8.232a2.744 2.744 0 01-2.744 2.744h-3.32L14.68 22.47z"></path><path fill="#616161" fill-rule="evenodd" d="M14.698 22.54l-1.28-.737 2.783-4.87h4.145a1.322 1.322 0 001.322-1.322V7.379a1.322 1.322 0 00-1.322-1.322H6.626a1.322 1.322 0 00-1.322 1.322v8.232a1.322 1.322 0 001.322 1.322h6.224v1.472H6.626a2.794 2.794 0 01-2.794-2.794V7.379a2.794 2.794 0 012.794-2.794h13.72a2.794 2.794 0 012.794 2.794v8.232a2.794 2.794 0 01-2.794 2.794h-3.291l-2.357 4.134zm2.328-4.185h3.32a2.744 2.744 0 002.744-2.744V7.379a2.744 2.744 0 00-2.744-2.744H6.626a2.744 2.744 0 00-2.744 2.744v8.232a2.744 2.744 0 002.744 2.744H12.8v-1.372H6.626a1.372 1.372 0 01-1.372-1.372V7.379a1.372 1.372 0 011.372-1.372h13.72a1.372 1.372 0 011.372 1.372v8.232a1.372 1.372 0 01-1.372 1.372H16.23l-2.744 4.802 1.194.686 2.346-4.116z" clip-rule="evenodd"></path><path fill="#616161" fill-rule="evenodd" d="M5.61 2.96a3.25 3.25 0 00-3.25 3.25v6.844H.86V6.211a4.75 4.75 0 014.75-4.75h7.377v1.5H5.61z" clip-rule="evenodd"></path></svg>