<svg xmlns:xlink="http://www.w3.org/1999/xlink" xmlns="http://www.w3.org/2000/svg" width="18" height="18" viewBox="0 0 18 18" fill="none">
<path d="M9.0001 12.375C8.41738 12.3742 7.84482 12.2224 7.33815 11.9346C6.83149 11.6467 6.40798 11.2326 6.10885 10.7325L5.14697 11.295C5.54743 11.9588 6.1126 12.5079 6.78768 12.8891C7.46275 13.2702 8.22485 13.4705 9.0001 13.4705C9.77534 13.4705 10.5374 13.2702 11.2125 12.8891C11.8876 12.5079 12.4528 11.9588 12.8532 11.295L11.8913 10.7325C11.5922 11.2326 11.1687 11.6467 10.662 11.9346C10.1554 12.2224 9.58282 12.3742 9.0001 12.375Z" fill="#616161"/>
<path d="M16.875 2.25H14.625V0H13.5V2.25H11.25V3.375H13.5V5.625H14.625V3.375H16.875V2.25Z" fill="#616161"/>
<path d="M6.46875 6.18755C6.19062 6.18755 5.91874 6.27002 5.68748 6.42454C5.45622 6.57906 5.27598 6.79869 5.16955 7.05565C5.06311 7.31261 5.03526 7.59536 5.08952 7.86814C5.14378 8.14093 5.27771 8.3915 5.47438 8.58816C5.67105 8.78483 5.92162 8.91876 6.1944 8.97303C6.46719 9.02729 6.74994 8.99944 7.0069 8.893C7.26386 8.78657 7.48348 8.60632 7.63801 8.37507C7.79253 8.14381 7.875 7.87193 7.875 7.5938C7.8765 7.40871 7.84115 7.22517 7.77101 7.05388C7.70087 6.88259 7.59734 6.72697 7.46646 6.59609C7.33558 6.4652 7.17996 6.36168 7.00867 6.29154C6.83738 6.2214 6.65384 6.18605 6.46875 6.18755Z" fill="#616161"/>
<path d="M11.5313 6.18755C11.2531 6.18755 10.9812 6.27002 10.75 6.42454C10.5187 6.57906 10.3385 6.79869 10.232 7.05565C10.1256 7.31261 10.0978 7.59536 10.152 7.86814C10.2063 8.14093 10.3402 8.3915 10.5369 8.58816C10.7335 8.78483 10.9841 8.91876 11.2569 8.97303C11.5297 9.02729 11.8124 8.99944 12.0694 8.893C12.3264 8.78657 12.546 8.60632 12.7005 8.37507C12.855 8.14381 12.9375 7.87193 12.9375 7.5938C12.939 7.40871 12.9036 7.22517 12.8335 7.05388C12.7634 6.88259 12.6598 6.72697 12.529 6.59609C12.3981 6.4652 12.2425 6.36168 12.0712 6.29154C11.8999 6.2214 11.7163 6.18605 11.5313 6.18755Z" fill="#616161"/>
<path d="M15.5306 7.3125C15.6728 7.86386 15.7464 8.43063 15.75 9C15.75 10.335 15.3541 11.6401 14.6124 12.7501C13.8707 13.8601 12.8165 14.7253 11.5831 15.2362C10.3497 15.7471 8.99252 15.8808 7.68315 15.6203C6.37378 15.3599 5.17105 14.717 4.22704 13.773C3.28304 12.829 2.64016 11.6262 2.37971 10.3169C2.11926 9.00749 2.25293 7.65029 2.76383 6.41689C3.27472 5.18349 4.13988 4.12928 5.24991 3.38758C6.35994 2.64588 7.66499 2.25 9.00001 2.25V1.125C7.36987 1.12444 5.77974 1.62978 4.44898 2.57129C3.11823 3.5128 2.11245 4.84409 1.57041 6.38147C1.02837 7.91885 0.976783 9.58656 1.42277 11.1545C1.86875 12.7224 2.79033 14.1133 4.06035 15.1353C5.33036 16.1573 6.88623 16.7599 8.51329 16.8601C10.1403 16.9603 11.7584 16.5531 13.1442 15.6947C14.53 14.8363 15.6153 13.569 16.2503 12.0676C16.8853 10.5662 17.0387 8.90477 16.6894 7.3125H15.5306Z" fill="#616161"/>
</svg>